<svg width="48" height="38" viewBox="0 0 48 38" fill="none" xmlns="http://www.w3.org/2000/svg">
<path d="M10.8 0C12.3913 0 13.9174 0.625556 15.0426 1.73905C16.1679 2.85255 16.8 4.36278 16.8 5.9375C16.8 7.51222 16.1679 9.02245 15.0426 10.1359C13.9174 11.2494 12.3913 11.875 10.8 11.875C9.2087 11.875 7.68258 11.2494 6.55736 10.1359C5.43214 9.02245 4.8 7.51222 4.8 5.9375C4.8 4.36278 5.43214 2.85255 6.55736 1.73905C7.68258 0.625556 9.2087 0 10.8 0ZM38.4 0C39.9913 0 41.5174 0.625556 42.6426 1.73905C43.7679 2.85255 44.4 4.36278 44.4 5.9375C44.4 7.51222 43.7679 9.02245 42.6426 10.1359C41.5174 11.2494 39.9913 11.875 38.4 11.875C36.8087 11.875 35.2826 11.2494 34.1574 10.1359C33.0321 9.02245 32.4 7.51222 32.4 5.9375C32.4 4.36278 33.0321 2.85255 34.1574 1.73905C35.2826 0.625556 36.8087 0 38.4 0ZM0 22.1691C0 17.7977 3.585 14.25 8.0025 14.25H11.205C12.3975 14.25 13.53 14.5098 14.55 14.9699C14.4525 15.5043 14.4075 16.0609 14.4075 16.625C14.4075 19.4602 15.6675 22.0059 17.655 23.75H1.5975C0.72 23.75 0 23.0375 0 22.1691ZM30.3975 23.75H30.345C32.34 22.0059 33.5925 19.4602 33.5925 16.625C33.5925 16.0609 33.54 15.5117 33.45 14.9699C34.47 14.5023 35.6025 14.25 36.795 14.25H39.9975C44.415 14.25 48 17.7977 48 22.1691C48 23.0449 47.28 23.75 46.4025 23.75H30.405H30.3975ZM16.8 16.625C16.8 14.7353 17.5586 12.9231 18.9088 11.5869C20.2591 10.2507 22.0904 9.5 24 9.5C25.9096 9.5 27.7409 10.2507 29.0912 11.5869C30.4414 12.9231 31.2 14.7353 31.2 16.625C31.2 18.5147 30.4414 20.3269 29.0912 21.6631C27.7409 22.9993 25.9096 23.75 24 23.75C22.0904 23.75 20.2591 22.9993 18.9088 21.6631C17.5586 20.3269 16.8 18.5147 16.8 16.625ZM9.6 36.0184C9.6 30.5559 14.0775 26.125 19.5975 26.125H28.395C33.9225 26.125 38.4 30.5559 38.4 36.0184C38.4 37.1094 37.5075 38 36.3975 38H11.595C10.4925 38 9.5925 37.1168 9.5925 36.0184H9.6Z" fill="url(#paint0_linear_3601_79)"/>
<defs>
<linearGradient id="paint0_linear_3601_79" x1="24" y1="0" x2="24" y2="38" gradientUnits="userSpaceOnUse">
<stop stop-color="#956E42"/>
<stop offset="1" stop-color="#E9DDCF"/>
</linearGradient>
</defs>
</svg>
