<svg width="42" height="37" viewBox="0 0 42 37" fill="none" xmlns="http://www.w3.org/2000/svg">
<path d="M40.8333 4.625C41.4779 4.625 42 4.10758 42 3.46875V1.15625C42 0.517422 41.4779 0 40.8333 0H1.16667C0.522083 0 0 0.517422 0 1.15625V3.46875C0 4.10758 0.522083 4.625 1.16667 4.625H2.33187V32.375H1.16667C0.522083 32.375 0 32.8924 0 33.5312V35.8438C0 36.4826 0.522083 37 1.16667 37H18.6667V31.2188C18.6667 30.5828 19.1917 30.0625 19.8333 30.0625H22.1667C22.8083 30.0625 23.3333 30.5828 23.3333 31.2188V37H40.8333C41.4779 37 42 36.4826 42 35.8438V33.5312C42 32.8924 41.4779 32.375 40.8333 32.375H39.6667V4.625H40.8333ZM18.6667 7.8625C18.6667 7.4 19.1333 6.9375 19.6 6.9375H22.4C22.8667 6.9375 23.3333 7.4 23.3333 7.8625V10.6375C23.3333 11.1 22.8667 11.5625 22.4 11.5625H19.6C19.1333 11.5625 18.6667 11.1 18.6667 10.6375V7.8625ZM18.6667 14.8C18.6667 14.3375 19.1333 13.875 19.6 13.875H22.4C22.8667 13.875 23.3333 14.3375 23.3333 14.8V17.575C23.3333 18.0375 22.8667 18.5 22.4 18.5H19.6C19.1333 18.5 18.6667 18.0375 18.6667 17.575V14.8ZM9.33333 7.8625C9.33333 7.4 9.8 6.9375 10.2667 6.9375H13.0667C13.5333 6.9375 14 7.4 14 7.8625V10.6375C14 11.1 13.5333 11.5625 13.0667 11.5625H10.2667C9.8 11.5625 9.33333 11.1 9.33333 10.6375V7.8625ZM13.0667 18.5H10.2667C9.8 18.5 9.33333 18.0375 9.33333 17.575V14.8C9.33333 14.3375 9.8 13.875 10.2667 13.875H13.0667C13.5333 13.875 14 14.3375 14 14.8V17.575C14 18.0375 13.5333 18.5 13.0667 18.5ZM14 27.75C14 23.9185 17.134 20.8125 21 20.8125C24.866 20.8125 28 23.9185 28 27.75H14ZM32.6667 17.575C32.6667 18.0375 32.2 18.5 31.7333 18.5H28.9333C28.4667 18.5 28 18.0375 28 17.575V14.8C28 14.3375 28.4667 13.875 28.9333 13.875H31.7333C32.2 13.875 32.6667 14.3375 32.6667 14.8V17.575ZM32.6667 10.6375C32.6667 11.1 32.2 11.5625 31.7333 11.5625H28.9333C28.4667 11.5625 28 11.1 28 10.6375V7.8625C28 7.4 28.4667 6.9375 28.9333 6.9375H31.7333C32.2 6.9375 32.6667 7.4 32.6667 7.8625V10.6375Z" fill="url(#paint0_linear_3601_77)"/>
<defs>
<linearGradient id="paint0_linear_3601_77" x1="21" y1="0" x2="21" y2="37" gradientUnits="userSpaceOnUse">
<stop stop-color="#956E42"/>
<stop offset="1" stop-color="#E9DDCF"/>
</linearGradient>
</defs>
</svg>
