<svg width="48" height="32" viewBox="0 0 48 32" fill="none" xmlns="http://www.w3.org/2000/svg">
<path d="M47.8262 18.022C47.4661 13.981 46.8731 13.194 46.649 12.898C46.1339 12.214 45.3098 11.767 44.4377 11.298C44.3884 11.2719 44.3458 11.2347 44.3133 11.1894C44.2808 11.1441 44.2593 11.0918 44.2505 11.0367C44.2417 10.9816 44.2457 10.9252 44.2624 10.872C44.2791 10.8188 44.308 10.7702 44.3467 10.73C44.5082 10.5662 44.6323 10.3694 44.7105 10.1531C44.7887 9.93684 44.8192 9.70618 44.7997 9.477C44.7621 9.07061 44.5731 8.6932 44.2702 8.41961C43.9673 8.14603 43.5727 7.99626 43.1645 8H41.6043C41.5374 8.0004 41.4706 8.00474 41.4042 8.013C41.3587 7.99325 41.3115 7.97752 41.2632 7.966C40.3391 6.013 39.0739 3.339 36.4515 2.034C32.5619 0.0999996 25.3969 0 23.9967 0C22.5965 0 15.4314 0.0999998 11.5469 2.031C8.92447 3.336 7.65928 6.01 6.73515 7.963L6.72714 7.979C6.68105 7.98547 6.63578 7.99687 6.59213 8.013C6.52576 8.00474 6.45897 8.0004 6.3921 8H4.82887C4.4207 7.99626 4.02603 8.14603 3.72313 8.41961C3.42024 8.6932 3.23124 9.07061 3.19362 9.477C3.17586 9.70564 3.20768 9.93543 3.28691 10.1506C3.36614 10.3659 3.49091 10.5614 3.65269 10.724C3.6914 10.7642 3.72023 10.8128 3.73693 10.866C3.75362 10.9192 3.75772 10.9756 3.7489 11.0307C3.74007 11.0858 3.71856 11.1381 3.68607 11.1834C3.65358 11.2287 3.611 11.2659 3.56168 11.292C2.68955 11.764 1.86143 12.211 1.35035 12.892C1.12632 13.192 0.534233 13.975 0.17318 18.016C-0.0268493 20.29 -0.0568537 22.644 0.100169 24.16C0.429218 27.31 1.04631 29.214 1.07231 29.293C1.167 29.5805 1.34131 29.8352 1.575 30.0276C1.80868 30.22 2.09215 30.3422 2.39251 30.38V30.4C2.39251 30.8243 2.5611 31.2313 2.8612 31.5314C3.16131 31.8314 3.56833 32 3.99274 32H9.59357C10.018 32 10.425 31.8314 10.7251 31.5314C11.0252 31.2313 11.1938 30.8243 11.1938 30.4C12.0549 30.4 12.654 30.246 13.2891 30.082C14.206 29.8351 15.1433 29.6707 16.0895 29.591C19.141 29.3 22.1754 29.2 23.9967 29.2C25.7809 29.2 28.9494 29.3 32.0059 29.591C32.9559 29.6707 33.8968 29.8357 34.8173 30.084C35.4254 30.24 36.0025 30.384 36.8016 30.399C36.8016 30.8233 36.9702 31.2303 37.2703 31.5304C37.5704 31.8304 37.9774 31.999 38.4018 31.999H44.0026C44.427 31.999 44.8341 31.8304 45.1342 31.5304C45.4343 31.2303 45.6029 30.8233 45.6029 30.399V30.387C45.9039 30.3499 46.1883 30.2281 46.4227 30.0356C46.6572 29.8432 46.8321 29.588 46.9271 29.3C46.9531 29.221 47.5702 27.317 47.8992 24.167C48.0562 22.65 48.0282 20.3 47.8262 18.022ZM9.62757 9.331C10.4277 7.631 11.3428 5.707 12.9721 4.896C15.3264 3.724 20.2061 3.196 23.9967 3.196C27.7872 3.196 32.667 3.72 35.0213 4.896C36.6506 5.707 37.5617 7.632 38.3658 9.331L38.4658 9.548C38.5243 9.67154 38.5502 9.80799 38.5409 9.94436C38.5317 10.0807 38.4876 10.2124 38.413 10.327C38.3384 10.4415 38.2357 10.535 38.1147 10.5985C37.9936 10.6621 37.8584 10.6936 37.7217 10.69C34.3982 10.6 27.3972 10.312 23.9967 10.312C20.5962 10.312 13.5952 10.607 10.2667 10.697C10.13 10.7006 9.99473 10.6691 9.87371 10.6055C9.75269 10.542 9.64997 10.4485 9.57535 10.334C9.50073 10.2194 9.4567 10.0877 9.44746 9.95136C9.43822 9.81499 9.46407 9.67854 9.52256 9.555C9.55756 9.481 9.59457 9.406 9.62757 9.331ZM10.8207 17.294C9.1003 17.5011 7.36885 17.6033 5.63598 17.6C4.57583 17.6 3.48267 17.3 3.27964 16.356C3.14062 15.721 3.15562 15.364 3.23063 15.005C3.29364 14.7 3.39365 14.478 3.89373 14.4C5.19392 14.2 5.92103 14.451 8.04934 15.078C9.46055 15.493 10.4787 16.046 11.0588 16.484C11.3498 16.7 11.1948 17.264 10.8207 17.294ZM32.962 25.494C31.6458 25.644 29.0134 25.589 24.0267 25.589C19.04 25.589 16.4086 25.644 15.0924 25.494C13.7342 25.343 12.0029 24.059 13.1851 22.915C13.9722 22.161 15.8085 21.597 18.2538 21.28C20.6992 20.963 21.7344 20.8 24.0167 20.8C26.299 20.8 27.2292 20.9 29.7795 21.281C32.3299 21.662 34.2572 22.233 34.8483 22.916C35.9264 24.14 34.3192 25.335 32.962 25.5V25.494ZM44.7137 16.355C44.5137 17.303 43.4135 17.599 42.3574 17.599C40.5914 17.5994 38.8268 17.4972 37.0726 17.293C36.7666 17.264 36.6245 16.727 36.9346 16.483C37.5057 16.034 38.5348 15.492 39.944 15.077C42.0723 14.45 43.2995 14.199 44.3537 14.408C44.6107 14.459 44.7467 14.735 44.7627 14.908C44.8334 15.3897 44.8168 15.8802 44.7137 16.356V16.355Z" fill="url(#paint0_linear_3601_48)"/>
<defs>
<linearGradient id="paint0_linear_3601_48" x1="24" y1="0" x2="24" y2="32" gradientUnits="userSpaceOnUse">
<stop stop-color="#956E42"/>
<stop offset="1" stop-color="#E9DDCF"/>
</linearGradient>
</defs>
</svg>
