<svg width="12" height="16" viewBox="0 0 12 16" fill="none" xmlns="http://www.w3.org/2000/svg">
<path d="M3.9638 5.33068H8.0362C8.21621 5.33068 8.38885 5.26043 8.51614 5.13537C8.64342 5.01032 8.71493 4.84071 8.71493 4.66385C8.71493 4.487 8.64342 4.31739 8.51614 4.19233C8.38885 4.06728 8.21621 3.99702 8.0362 3.99702H3.9638C3.78379 3.99702 3.61115 4.06728 3.48386 4.19233C3.35658 4.31739 3.28507 4.487 3.28507 4.66385C3.28507 4.84071 3.35658 5.01032 3.48386 5.13537C3.61115 5.26043 3.78379 5.33068 3.9638 5.33068ZM4.28281 2.99677C4.29281 3.07809 4.33293 3.15295 4.39553 3.20707C4.45812 3.26119 4.5388 3.29077 4.62217 3.29018H7.35747C7.44043 3.28935 7.52034 3.25927 7.58263 3.20542C7.64492 3.15156 7.68545 3.07752 7.69683 2.99677C7.84608 2.28795 8.12182 1.61068 8.51131 0.996275C8.54727 0.936671 8.56211 0.86704 8.55352 0.798269C8.54492 0.729498 8.51337 0.665465 8.4638 0.61618C8.42286 0.563203 8.36674 0.523466 8.30263 0.502077C8.23853 0.480687 8.16938 0.478623 8.10407 0.49615L6.84163 1.02962C6.82046 1.03966 6.79726 1.04487 6.77376 1.04487C6.75025 1.04487 6.72705 1.03966 6.70588 1.02962C6.66378 1.01422 6.6296 0.983044 6.61086 0.942928L6.31222 0.202744C6.28614 0.142599 6.24264 0.091314 6.18713 0.0552665C6.13161 0.0192189 6.06654 0 6 0C5.93346 0 5.86838 0.0192189 5.81287 0.0552665C5.75736 0.091314 5.71386 0.142599 5.68778 0.202744L5.38914 0.942928C5.3704 0.983044 5.33622 1.01422 5.29412 1.02962C5.27295 1.03966 5.24975 1.04487 5.22624 1.04487C5.20274 1.04487 5.17954 1.03966 5.15837 1.02962L3.89593 0.49615C3.83119 0.470425 3.75995 0.464945 3.69193 0.480459C3.62391 0.495973 3.56242 0.531725 3.51584 0.582839C3.46627 0.632123 3.43472 0.696157 3.42612 0.764927C3.41753 0.833698 3.43237 0.903329 3.46833 0.962933C3.86154 1.58752 4.13741 2.27639 4.28281 2.99677ZM8.33484 6.07754C8.26483 6.0247 8.17877 5.99652 8.0905 5.99752H3.9095C3.82123 5.99652 3.73517 6.0247 3.66516 6.07754C1.93439 7.4112 0 9.67843 0 11.6789C0 14.4996 1.60181 16 6 16C10.3982 16 12 14.4996 12 11.6789C12 9.67843 10.0724 7.37786 8.33484 6.07754ZM6.67873 13.4194C6.63916 13.427 6.60344 13.4477 6.57751 13.478C6.55158 13.5083 6.537 13.5465 6.5362 13.5861V13.8328C6.5362 13.9654 6.48257 14.0926 6.3871 14.1864C6.29164 14.2802 6.16216 14.3329 6.02715 14.3329C5.89214 14.3329 5.76266 14.2802 5.6672 14.1864C5.57173 14.0926 5.5181 13.9654 5.5181 13.8328V13.6194C5.5181 13.5752 5.50022 13.5328 5.4684 13.5015C5.43658 13.4703 5.39342 13.4527 5.34842 13.4527H4.94796C4.81295 13.4527 4.68348 13.4 4.58801 13.3062C4.49255 13.2124 4.43891 13.0852 4.43891 12.9526C4.43891 12.8199 4.49255 12.6927 4.58801 12.5989C4.68348 12.5051 4.81295 12.4525 4.94796 12.4525H6.40724C6.51557 12.4561 6.62168 12.4216 6.70642 12.3552C6.79117 12.2888 6.84899 12.1949 6.86946 12.0903C6.88993 11.9857 6.87171 11.8774 6.81807 11.7849C6.76443 11.6923 6.67891 11.6216 6.57692 11.5856L5.09728 11.0054C4.79907 10.8957 4.54533 10.6935 4.37444 10.4295C4.20355 10.1655 4.1248 9.85402 4.1501 9.54214C4.17541 9.23026 4.30339 8.93495 4.51469 8.70088C4.72599 8.4668 5.00912 8.30669 5.32127 8.24474C5.36083 8.23713 5.39656 8.21644 5.42249 8.18611C5.44842 8.15578 5.463 8.11764 5.4638 8.07803V7.8313C5.4638 7.69866 5.51743 7.57146 5.6129 7.47766C5.70836 7.38387 5.83784 7.33118 5.97285 7.33118C6.10786 7.33118 6.23734 7.38387 6.3328 7.47766C6.42827 7.57146 6.4819 7.69866 6.4819 7.8313V8.04469C6.4819 8.0889 6.49978 8.13131 6.5316 8.16257C6.56342 8.19384 6.60658 8.2114 6.65158 8.2114H7.05204C7.18704 8.2114 7.31652 8.26409 7.41199 8.35788C7.50745 8.45167 7.56109 8.57888 7.56109 8.71152C7.56109 8.84416 7.50745 8.97137 7.41199 9.06516C7.31652 9.15896 7.18704 9.21165 7.05204 9.21165H5.61991C5.51158 9.20798 5.40547 9.24245 5.32073 9.30885C5.23598 9.37525 5.17816 9.46921 5.15769 9.57379C5.13722 9.67837 5.15544 9.78669 5.20908 9.87924C5.26272 9.97178 5.34824 10.0425 5.45023 10.0785L6.92986 10.6587C7.22799 10.7706 7.48078 10.9751 7.64985 11.2411C7.81892 11.5071 7.89502 11.82 7.86661 12.1323C7.8382 12.4446 7.70682 12.7393 7.49243 12.9716C7.27804 13.2039 6.99234 13.3611 6.67873 13.4194Z" fill="#FFD382"/>
</svg>
