<svg width="294" height="300" viewBox="0 0 294 300" fill="none" xmlns="http://www.w3.org/2000/svg">
<path opacity="0.56" d="M218.778 92.139C212.046 79.7977 202.79 70.4015 191.01 63.9503C179.229 57.4992 165.486 54.2736 149.779 54.2736C132.389 54.2736 116.962 58.2004 103.499 66.054C90.0354 73.9075 79.5172 85.1269 71.9442 99.7121C64.3711 114.297 60.5846 131.126 60.5846 150.199C60.5846 169.833 64.3711 186.943 71.9442 201.528C79.7977 216.113 90.5964 227.332 104.34 235.186C118.084 243.039 134.071 246.966 152.303 246.966C174.742 246.966 193.113 241.076 207.418 229.296C221.723 217.235 231.119 200.546 235.607 179.229H134.632V134.212H293.667V185.54C289.74 206.016 281.326 224.948 268.423 242.338C255.521 259.728 238.832 273.752 218.357 284.411C198.162 294.789 175.443 299.978 150.199 299.978C121.87 299.978 96.2061 293.667 73.2064 281.045C50.4871 268.143 32.5362 250.332 19.3534 227.613C6.45113 204.894 -2.22613e-06 179.089 -2.22613e-06 150.199C-2.22613e-06 121.309 6.45113 95.5048 19.3534 72.7856C32.5362 49.7859 50.4871 31.9751 73.2064 19.3534C96.2061 6.4511 121.73 -3.72821e-05 149.779 -3.72821e-05C182.876 -3.72821e-05 211.625 8.134 236.027 24.4021C260.43 40.3897 277.259 62.9686 286.515 92.139H218.778Z" fill="url(#paint0_linear_2199_53)"/>
<defs>
<linearGradient id="paint0_linear_2199_53" x1="185.077" y1="56.3235" x2="186.498" y2="366.243" gradientUnits="userSpaceOnUse">
<stop offset="0.00409557" stop-color="#698AC1"/>
<stop offset="1" stop-color="#020823" stop-opacity="0"/>
</linearGradient>
</defs>
</svg>
