<svg width="48" height="39" viewBox="0 0 48 39" fill="none" xmlns="http://www.w3.org/2000/svg">
<path d="M47.9672 32.933C47.3367 31.3927 45.5712 30.6225 44.0579 31.2643L42.4186 32.0345L39.5182 24.3329C43.0491 21.6374 44.3102 16.6314 42.0403 12.6523L35.6089 1.2283C34.9784 0.201424 33.7173 -0.312013 32.5824 0.201423L24.0072 3.79548L15.4321 0.201423C14.2972 -0.312013 13.0361 0.201424 12.4056 1.2283L5.97423 12.6523C3.70433 16.6314 4.96538 21.6374 8.49633 24.3329L5.59591 32.0345L3.95654 31.3927C2.44328 30.7509 0.677814 31.3927 0.0472894 32.933C-0.0788156 33.1897 0.0472893 33.5748 0.425604 33.7031L12.5317 38.8375C12.7839 38.9659 13.1622 38.8375 13.2883 38.4524C13.9188 36.9121 13.1622 35.1151 11.649 34.4733L10.1357 33.9599L13.0361 26.0016C13.4144 26.0016 13.6666 26.13 14.0449 26.13C17.9542 26.13 21.4851 23.5628 22.494 19.5836L24.0072 13.8075L25.5205 19.5836C26.5293 23.5628 30.1864 26.13 33.9695 26.13C34.3479 26.13 34.6001 26.13 34.9784 26.0016L37.8788 33.9599L36.2394 34.6017C34.7262 35.2435 33.9695 37.0405 34.6001 38.5808C34.7262 38.8375 35.1045 39.0942 35.3567 38.9659L47.4628 33.8315C47.8411 33.7031 48.0933 33.3181 47.9672 32.933ZM20.7285 12.2672L12.2795 8.67312L15.0538 3.79548L22.1157 6.74774L20.7285 12.2672ZM27.286 12.2672L25.8988 6.87609L32.9607 3.92384L35.735 8.80148L27.286 12.2672Z" fill="url(#paint0_linear_3601_84)"/>
<defs>
<linearGradient id="paint0_linear_3601_84" x1="24" y1="0" x2="24" y2="39" gradientUnits="userSpaceOnUse">
<stop stop-color="#956E42"/>
<stop offset="1" stop-color="#E9DDCF"/>
</linearGradient>
</defs>
</svg>
