<svg width="43" height="33" viewBox="0 0 43 33" fill="none" xmlns="http://www.w3.org/2000/svg">
<path d="M14.1106 24.7879C13.0465 25.4707 11.9073 25.6837 10.693 25.4271C9.47871 25.1704 8.53461 24.5169 7.86072 23.4668C7.18683 22.4166 6.9862 21.2861 7.25882 20.0752C7.53144 18.8644 8.19978 17.9176 9.26385 17.2348C10.3279 16.552 11.4671 16.3389 12.6814 16.5956C13.8957 16.8523 14.8398 17.5057 15.5137 18.5559C16.1876 19.6061 16.3882 20.7366 16.1156 21.9474C15.843 23.1583 15.1747 24.1051 14.1106 24.7879ZM17.8979 30.69C20.2126 29.2047 21.8207 27.2612 22.722 24.8594C23.6251 22.4603 23.7367 20.1898 23.0568 18.0479L28.9645 14.257L32.2568 14.5127C32.4732 14.5124 32.6822 14.49 32.8838 14.4454C33.0854 14.4007 33.2838 14.3148 33.4792 14.1875C33.6745 14.0602 33.8347 13.9161 33.9596 13.755C34.0828 13.5913 34.1815 13.397 34.2558 13.1722L35.6902 9.21912L39.4273 9.51573C39.6823 9.51775 39.9366 9.48839 40.1902 9.42766C40.4425 9.36782 40.6558 9.2579 40.8302 9.09788C41.0045 8.93786 41.1585 8.75821 41.292 8.55891C41.4256 8.35962 41.517 8.13728 41.5663 7.89189L42.5377 2.82945C42.5966 2.5413 42.6028 2.2803 42.5561 2.04645C42.509 1.81485 42.4145 1.58858 42.2727 1.36764C42.131 1.14669 41.9639 0.969907 41.7715 0.837282C41.5791 0.70466 41.3411 0.608971 41.0576 0.550218L38.6931 0.0486346C38.3997 -0.0133896 38.1248 -0.0160836 37.8685 0.0405528C37.6122 0.0971893 37.3735 0.196448 37.1524 0.33833L19.1185 11.9105C17.484 10.4274 15.388 9.58407 12.8304 9.38061C10.2743 9.17626 7.823 9.82694 5.47652 11.3326C2.7127 13.1062 0.984695 15.5301 0.292502 18.6044C-0.397802 21.6757 0.132225 24.5751 1.88258 27.3029C3.63294 30.0306 6.04971 31.7203 9.13289 32.3721C12.2161 33.0238 15.1373 32.4625 17.8966 30.688" fill="url(#paint0_linear_3601_53)"/>
<defs>
<linearGradient id="paint0_linear_3601_53" x1="15.8709" y1="4.6627" x2="28.2923" y2="24.0201" gradientUnits="userSpaceOnUse">
<stop stop-color="#956E42"/>
<stop offset="1" stop-color="#E9DDCF"/>
</linearGradient>
</defs>
</svg>
