<svg width="48" height="45" viewBox="0 0 48 45" fill="none" xmlns="http://www.w3.org/2000/svg">
<path d="M46.8098 27.5302C45.5266 24.6572 44.2402 21.7806 42.9565 18.9016L41.7897 16.2987C40.8129 16.3822 39.8331 16.176 38.9729 15.7058C38.1127 15.2355 37.4102 14.5222 36.9532 13.6549C31.1919 16.2293 25.4337 18.8049 19.6721 21.3763C16.2541 22.9029 12.8342 24.4316 9.41255 25.9625C9.73847 26.8438 9.80915 27.7991 9.61647 28.7188C9.42379 29.6385 8.97555 30.4851 8.32327 31.1615C9.42709 33.636 10.5322 36.1107 11.6386 38.5855C12.2282 39.9069 12.8167 41.223 13.4049 42.5453C14.1022 42.5175 14.7975 42.6367 15.4458 42.895C16.0941 43.1533 16.6808 43.545 17.168 44.0447C23.0868 41.4 29.0021 38.7579 34.9201 36.1125C38.3581 34.5749 41.8052 33.0373 45.2522 31.4989C45.2026 30.7632 45.3166 30.0257 45.5858 29.3392C45.8551 28.6528 46.2731 28.0345 46.8097 27.5287" fill="url(#paint0_linear_3601_74)"/>
<path d="M46.3043 12.8856L38.4376 4.051C37.6455 3.16083 36.8504 2.27292 36.0621 1.38426C34.9287 1.85452 33.6817 1.9801 32.4773 1.74528C31.2729 1.51046 30.1645 0.925674 29.2907 0.0640869C23.3942 5.31899 17.4964 10.5725 11.5975 15.8246L1.0957 25.1812C1.81897 26.1092 2.26543 27.2226 2.38367 28.3932C2.50192 29.5638 2.28715 30.744 1.76409 31.7979C4.01818 34.3334 6.27303 36.8636 8.53316 39.4021C9.7364 40.7547 10.9381 42.1035 12.1399 43.4562C12.961 43.1592 13.8352 43.038 14.7061 43.1002C15.5771 43.1625 16.4252 43.4068 17.1957 43.8175C23.261 38.4244 29.3111 33.0298 35.3688 27.633C38.8968 24.4943 42.4223 21.3543 45.9452 18.213C45.6079 17.354 45.4649 16.431 45.5265 15.5101C45.5881 14.5893 45.8527 13.6936 46.3013 12.8871" fill="url(#paint1_linear_3601_74)"/>
<path d="M45.2086 12.8237L37.3359 3.98389C36.5468 3.10051 35.7547 2.20808 34.9596 1.32017C33.8272 1.78996 32.5814 1.91529 31.3782 1.68047C30.1749 1.44564 29.0677 0.861091 28.195 0L10.5018 15.759C7.00067 18.8792 3.5026 21.997 0 25.1141C0.723482 26.0433 1.16955 27.1581 1.28674 28.3299C1.40393 29.5017 1.18748 30.6828 0.662348 31.7369C2.91946 34.2693 5.17959 36.8025 7.43293 39.341C8.63592 40.6879 9.83941 42.038 11.0434 43.3913C11.8648 43.0947 12.7393 42.9739 13.6104 43.0367C14.4814 43.0995 15.3296 43.3444 16.1 43.7557C22.1577 38.3619 28.2154 32.9642 34.2731 27.5704C37.8006 24.4292 41.3261 21.2882 44.8495 18.1474C44.5122 17.2896 44.3693 16.3676 44.4313 15.448C44.4933 14.5283 44.7585 13.6338 45.2079 12.829" fill="url(#paint2_linear_3601_74)"/>
<path d="M40.0955 17.9377L16.6493 38.8205C16.3061 39.1245 15.8813 39.1705 15.6558 38.9171L4.83794 26.7715C4.78734 26.7114 4.751 26.6406 4.73167 26.5644C4.71233 26.4883 4.71049 26.4087 4.72629 26.3317L4.70215 26.2231L4.78966 26.1386C4.83492 26.0277 4.92545 25.9062 5.04841 25.7953L28.4946 4.91631C28.8409 4.61078 29.2686 4.56703 29.4896 4.81673L40.3097 16.9623C40.5323 17.2135 40.4425 17.6322 40.0985 17.9392M16.0918 38.3981C16.1341 38.3772 16.1734 38.3509 16.2087 38.3196L39.6549 17.4368C39.6915 17.4067 39.723 17.3711 39.7485 17.3312L29.0634 5.33272C29.0205 5.35308 28.981 5.38006 28.9465 5.41269L5.50028 26.294C5.45729 26.3302 5.43692 26.3574 5.41881 26.3807V26.417L16.0933 38.3981" fill="url(#paint3_linear_3601_74)"/>
<path d="M6.48535 24.5212L7.04586 24.021L18.2145 36.5287L17.6547 37.0296L6.48535 24.5212ZM26.2962 7.31597L26.8559 6.81506L38.0336 19.3167L37.4731 19.8176L26.2962 7.31597Z" fill="url(#paint4_linear_3601_74)"/>
<defs>
<linearGradient id="paint0_linear_3601_74" x1="46.7778" y1="27.1574" x2="8.26334" y2="30.4632" gradientUnits="userSpaceOnUse">
<stop stop-color="#956E42"/>
<stop offset="1" stop-color="#E9DDCF"/>
</linearGradient>
<linearGradient id="paint1_linear_3601_74" x1="46.3043" y1="21.9408" x2="1.0957" y2="21.9408" gradientUnits="userSpaceOnUse">
<stop stop-color="#956E42"/>
<stop offset="1" stop-color="#E9DDCF"/>
</linearGradient>
<linearGradient id="paint2_linear_3601_74" x1="22.6043" y1="0" x2="22.6043" y2="43.7557" gradientUnits="userSpaceOnUse">
<stop stop-color="#956E42"/>
<stop offset="1" stop-color="#E9DDCF"/>
</linearGradient>
<linearGradient id="paint3_linear_3601_74" x1="22.5668" y1="4.65485" x2="22.5668" y2="39.0813" gradientUnits="userSpaceOnUse">
<stop stop-color="#956E42"/>
<stop offset="1" stop-color="#E9DDCF"/>
</linearGradient>
<linearGradient id="paint4_linear_3601_74" x1="22.2595" y1="6.81506" x2="22.2595" y2="37.0296" gradientUnits="userSpaceOnUse">
<stop stop-color="#956E42"/>
<stop offset="1" stop-color="#E9DDCF"/>
</linearGradient>
</defs>
</svg>
