<svg width="54" height="56" viewBox="0 0 54 56" fill="none" xmlns="http://www.w3.org/2000/svg">
<path d="M11.9042 55.2833V49.1407H23.8085V39.6197C21.378 39.0566 19.2085 37.995 17.2998 36.4347C15.3912 34.8745 13.9895 32.9161 13.0947 30.5594C9.37459 30.0987 6.26262 28.4228 3.75876 25.5317C1.2549 22.6405 0.00198404 19.2488 0 15.3565V12.2852C0 10.596 0.583308 9.1504 1.74992 7.94851C2.91654 6.74661 4.31727 6.14463 5.95212 6.14259H11.9042V0H41.6648V6.14259H47.617C49.2538 6.14259 50.6555 6.74456 51.8221 7.94851C52.9887 9.15245 53.5711 10.598 53.5691 12.2852V15.3565C53.5691 19.2468 52.3162 22.6385 49.8103 25.5317C47.3045 28.4248 44.1925 30.1007 40.4744 30.5594C39.5816 32.914 38.1809 34.8725 36.2722 36.4347C34.3636 37.997 32.193 39.0587 29.7606 39.6197V49.1407H41.6648V55.2833H11.9042ZM11.9042 23.9561V12.2852H5.95212V15.3565C5.95212 17.3016 6.49773 19.0553 7.58895 20.6176C8.68017 22.1799 10.1186 23.2927 11.9042 23.9561ZM41.6648 23.9561C43.4505 23.2906 44.8889 22.1768 45.9801 20.6145C47.0713 19.0523 47.617 17.2996 47.617 15.3565V12.2852H41.6648V23.9561Z" fill="#25282B"/>
</svg>
